<?xml version="1.0" encoding="UTF-8"?>
<svg id="Layer_5" xmlns="http://www.w3.org/2000/svg" version="1.1" viewBox="0 0 200 200">
  <!-- Generator: Adobe Illustrator 29.4.0, SVG Export Plug-In . SVG Version: 2.1.0 Build 152)  -->
  <defs>
    <style>
      .st0 {
        fill: #fff;
      }
    </style>
  </defs>
  <path class="st0" d="M113.6,77.4c0-.2,0-.1.1-.2,1.2-.8,2.9-1.4,4.2-2.2,4.5-2.5,8.7-5.3,12.7-8.5,0,0,0-.1.2,0,.2.3.6,1.4.7,1.8,1.1,3.7,0,6.9-3.3,9s-10.2,2.3-14.6,0Z"/>
  <path class="st0" d="M86.4,77.4c-4.8,2.6-11.9,2.9-16-1s-2.8-6.5-1.2-9.9l5.1,3.7c2.5,1.7,5,3.2,7.5,4.7s3.1,1.5,4.4,2.3.2.1.2.2Z"/>
  <path class="st0" d="M151.3,28.6c-1.7,5.5-5.1,10.6-8.7,15.1s-10.4,11.1-16.2,15.7-11.2,8.1-17.4,11c-.8-.5-1.6-1.1-2.4-1.5-5.2-2.7-11-2-15.6,1.5-6.8-3.2-13.1-7.5-18.9-12.2s-10.6-9.4-14.9-14.7-6.8-9.4-8.5-14.9l1.7,2.2c2.2,2.3,4.8,4.6,7.8,5.8s3,1,3.7.7,1.4-1.5,1.9-1.9c15.8-14.6,39.1-18.4,58.7-9.4s11.4,6.8,16.1,11.4c2.4,0,4.8-1.3,6.8-2.6s4.4-3.7,6.1-6Z"/>
  <path class="st0" d="M79.5,88.1c-.5,2.6-.6,5.2-.7,7.8v.2c0,0-17.2,9.9-17.2,9.9l13.5,7.6c5.5,3.2,8.9,9.5,11.6,15.2,5.4,11.6,8.5,24.3,12.2,36.5l1.1,3.4c3.5-11.3,6.4-22.8,10.7-33.8,2.5-6.3,6.8-16.1,12.4-20.1,5-3.1,10.2-5.8,15.3-8.7l-17.2-10c0,0,0-.2,0-.3-.1-1,0-2.4,0-3.4s-.3-2.8-.5-4.2c7.6.2,15.7-3.5,18.8-10.7,2.4-5.7,1.1-11.6-1.8-16.8l4.4-4.8,4.4-5.8c2.3,4.1,4.2,8.5,5.4,13,2.7,9.8,1.7,20.2,1.8,30.4,0,6.3.3,12.6,1.1,18.8,1.7,13.3,5.6,26.4,11.9,38.2l-18.2-14.6-13,20.9-13.6-12.8-21.7,35.1-21.7-35.1-13.7,12.7-12.9-20.9-18.3,14.6c.5-1.1,1.1-2.1,1.6-3.1,6.1-12.7,9.7-26.5,10.8-40.6s.1-21.1.5-31.7.7-8,1.8-12.1,3.1-8.8,5.3-12.9h.2c2.6,3.8,5.5,7.3,8.7,10.5,0,.2-1.2,2.6-1.4,3-3,7.2-1.9,14.7,4.2,19.8,4,3.3,9.2,4.8,14.4,4.7Z"/>
  <path class="st0" d="M120.9,105.9c-12.6,6.7-16.8,21.1-20.8,33.9l-.2.2c-3.9-12.8-8.1-27.2-20.8-34.1,0,0,.1-.1.2-.2,2-1.4,4.6-2.4,6.7-3.8s1.4-1.3,1.5-2.2c.2-1.8,0-4,0-5.9.2-5.4,1.8-11.1,5.8-14.8s8.6-4.3,13-.4,6.3,12.3,6.2,19.3-.3,2.8,1.3,3.9,3.6,2,5.3,3,1.8,1,1.7,1.1Z"/>
</svg>