<?xml version="1.0" encoding="UTF-8"?>
<svg id="Layer_1" xmlns="http://www.w3.org/2000/svg" version="1.1" viewBox="0 0 89.7 89.7">
  <!-- Generator: Adobe Illustrator 29.8.2, SVG Export Plug-In . SVG Version: 2.1.1 Build 3)  -->
  <defs>
    <style>
      .st0 {
        fill: #8e8ec9;
      }

      .st1 {
        fill: #008a2b;
      }

      .st2 {
        fill: #42b55e;
      }

      .st3 {
        fill: #493b62;
      }

      .st4 {
        fill: #c0c0f4;
      }

      .st5 {
        fill: #eae8fc;
      }

      .st6 {
        fill: #7fda6d;
      }

      .st7 {
        fill: #006557;
      }

      .st8 {
        fill: #fff;
      }

      .st9 {
        fill: #ff265b;
      }
    </style>
  </defs>
  <rect class="st4" x="62.8" y="59.9" width="5.8" height="5.8"/>
  <rect class="st0" x="62.8" y="54.1" width="5.8" height="5.8"/>
  <rect class="st4" x="62.8" y="48.3" width="5.8" height="5.8"/>
  <rect class="st4" x="62.8" y="42.4" width="5.8" height="5.8"/>
  <rect class="st0" x="57" y="65.7" width="5.8" height="5.8"/>
  <rect class="st9" x="57" y="59.9" width="5.8" height="5.8"/>
  <rect class="st9" x="57" y="54.1" width="5.8" height="5.8"/>
  <rect class="st9" x="57" y="48.3" width="5.8" height="5.8"/>
  <rect class="st0" x="57" y="36.6" width="5.8" height="5.8"/>
  <rect class="st0" x="51.2" y="71.5" width="5.8" height="5.8"/>
  <rect class="st9" x="51.2" y="59.9" width="5.8" height="5.8"/>
  <rect class="st4" x="51.2" y="30.8" width="5.8" height="5.8"/>
  <rect class="st4" x="45.4" y="71.5" width="5.8" height="5.8"/>
  <rect class="st9" x="45.4" y="59.9" width="5.8" height="5.8"/>
  <rect class="st9" x="39.5" y="54.1" width="5.8" height="5.8"/>
  <rect class="st9" x="39.5" y="48.3" width="5.8" height="5.8"/>
  <polygon class="st0" points="45.4 19.2 39.5 19.2 39.5 25 45.4 25 51.2 25 51.2 19.2 45.4 19.2"/>
  <rect class="st8" x="27.9" y="36.6" width="5.8" height="5.8"/>
  <g>
    <polygon class="st5" points="51.2 13.4 45.4 13.4 39.5 13.4 33.7 13.4 33.7 19.2 39.5 19.2 45.4 19.2 51.2 19.2 57 19.2 57 13.4 51.2 13.4"/>
    <polygon class="st5" points="51.2 30.8 51.2 25 45.4 25 39.5 25 39.5 30.8 33.7 30.8 33.7 36.6 33.7 42.4 39.5 42.4 45.4 42.4 51.2 42.4 57 42.4 57 36.6 51.2 36.6 51.2 30.8"/>
    <polygon class="st5" points="33.7 71.5 33.7 77.4 39.5 77.4 45.4 77.4 45.4 71.5 39.5 71.5 33.7 71.5"/>
    <rect class="st5" x="27.9" y="65.7" width="5.8" height="5.8"/>
    <polygon class="st5" points="27.9 54.1 22.1 54.1 22.1 59.9 22.1 65.7 27.9 65.7 27.9 59.9 27.9 54.1"/>
  </g>
  <rect class="st8" x="22.1" y="48.3" width="5.8" height="5.8"/>
  <rect class="st8" x="22.1" y="42.4" width="5.8" height="5.8"/>
  <rect class="st8" x="22.1" y="36.6" width="5.8" height="5.8"/>
  <rect class="st9" x="57" y="59.9" width="5.8" height="5.8"/>
  <rect class="st9" x="57" y="54.1" width="5.8" height="5.8"/>
  <rect class="st9" x="51.2" y="59.9" width="5.8" height="5.8"/>
  <polygon class="st7" points="57 54.1 57 59.9 57 65.7 62.8 65.7 62.8 59.9 62.8 54.1 57 54.1"/>
  <rect class="st1" x="57" y="48.3" width="5.8" height="5.8"/>
  <rect class="st1" x="57" y="42.4" width="5.8" height="5.8"/>
  <rect class="st7" x="51.2" y="65.7" width="5.8" height="5.8"/>
  <rect class="st7" x="51.2" y="48.3" width="5.8" height="5.8"/>
  <rect class="st7" x="45.4" y="65.7" width="5.8" height="5.8"/>
  <polygon class="st1" points="51.2 54.1 51.2 59.9 45.4 59.9 39.5 59.9 39.5 65.7 39.5 71.5 45.4 71.5 45.4 65.7 51.2 65.7 57 65.7 57 59.9 57 54.1 51.2 54.1"/>
  <rect class="st8" x="33.7" y="13.4" width="5.8" height="5.8"/>
  <rect class="st6" x="27.9" y="54.1" width="5.8" height="5.8"/>
  <rect class="st6" x="27.9" y="48.3" width="5.8" height="5.8"/>
  <polygon class="st2" points="51.2 42.4 45.4 42.4 39.5 42.4 33.7 42.4 27.9 42.4 27.9 48.3 33.7 48.3 33.7 54.1 33.7 59.9 27.9 59.9 27.9 65.7 33.7 65.7 33.7 71.5 39.5 71.5 39.5 65.7 39.5 59.9 45.4 59.9 51.2 59.9 51.2 54.1 51.2 48.3 57 48.3 57 42.4 51.2 42.4"/>
  <rect class="st8" x="27.9" y="36.6" width="5.8" height="5.8"/>
  <rect class="st8" x="22.1" y="42.4" width="5.8" height="5.8"/>
  <rect class="st8" x="22.1" y="36.6" width="5.8" height="5.8"/>
  <g>
    <polygon class="st3" points="68.6 42.4 68.6 48.3 68.6 54.1 68.6 59.9 68.6 65.7 74.5 65.7 74.5 59.9 74.5 54.1 74.5 48.3 74.5 42.4 68.6 42.4"/>
    <rect class="st3" x="62.8" y="65.7" width="5.8" height="5.8"/>
    <rect class="st3" x="62.8" y="36.6" width="5.8" height="5.8"/>
    <rect class="st3" x="57" y="71.5" width="5.8" height="5.8"/>
    <rect class="st3" x="57" y="30.8" width="5.8" height="5.8"/>
    <rect class="st3" x="57" y="13.4" width="5.8" height="5.8"/>
    <polygon class="st3" points="51.2 25 51.2 30.8 57 30.8 57 25 57 19.2 51.2 19.2 51.2 25"/>
    <polygon class="st3" points="45.4 77.4 39.5 77.4 33.7 77.4 33.7 83.2 39.5 83.2 45.4 83.2 51.2 83.2 57 83.2 57 77.4 51.2 77.4 45.4 77.4"/>
    <polygon class="st3" points="45.4 13.4 51.2 13.4 57 13.4 57 7.5 51.2 7.5 45.4 7.5 39.5 7.5 33.7 7.5 33.7 13.4 39.5 13.4 45.4 13.4"/>
    <polygon class="st3" points="39.5 25 39.5 19.2 33.7 19.2 33.7 25 33.7 30.8 39.5 30.8 39.5 25"/>
    <rect class="st3" x="27.9" y="71.5" width="5.8" height="5.8"/>
    <polygon class="st3" points="33.7 36.6 33.7 30.8 27.9 30.8 22.1 30.8 22.1 36.6 27.9 36.6 33.7 36.6"/>
    <rect class="st3" x="27.9" y="13.4" width="5.8" height="5.8"/>
    <rect class="st3" x="22.1" y="65.7" width="5.8" height="5.8"/>
    <polygon class="st3" points="22.1 54.1 22.1 48.3 22.1 42.4 22.1 36.6 16.3 36.6 16.3 42.4 16.3 48.3 16.3 54.1 16.3 59.9 16.3 65.7 22.1 65.7 22.1 59.9 22.1 54.1"/>
  </g>
</svg>