<?xml version="1.0" encoding="UTF-8"?>
<svg id="Layer_1" xmlns="http://www.w3.org/2000/svg" version="1.1" viewBox="0 0 89.7 89.7">
  <!-- Generator: Adobe Illustrator 29.8.2, SVG Export Plug-In . SVG Version: 2.1.1 Build 3)  -->
  <defs>
    <style>
      .st0 {
        fill: #ff916a;
      }

      .st1 {
        fill: #ffeac7;
      }

      .st2 {
        fill: #ffd390;
      }

      .st3 {
        fill: #ff7875;
      }

      .st4 {
        fill: #ffbe80;
      }

      .st5 {
        fill: #ffb07a;
      }

      .st6 {
        fill: #493b62;
      }

      .st7 {
        fill: #db7664;
      }
    </style>
  </defs>
  <rect class="st3" x="50.9" y="50.9" width="5.5" height="5.5"/>
  <rect class="st3" x="50.9" y="23.4" width="5.5" height="5.5"/>
  <rect class="st3" x="45.4" y="56.4" width="5.5" height="5.5"/>
  <rect class="st3" x="45.4" y="23.4" width="5.5" height="5.5"/>
  <rect class="st3" x="39.9" y="56.4" width="5.5" height="5.5"/>
  <rect class="st3" x="39.9" y="23.4" width="5.5" height="5.5"/>
  <rect class="st3" x="34.4" y="23.4" width="5.5" height="5.5"/>
  <rect class="st3" x="28.9" y="28.9" width="5.5" height="5.5"/>
  <rect class="st3" x="23.4" y="50.9" width="5.5" height="5.5"/>
  <rect class="st3" x="23.4" y="45.4" width="5.5" height="5.5"/>
  <rect class="st3" x="23.4" y="39.9" width="5.5" height="5.5"/>
  <rect class="st3" x="23.4" y="34.4" width="5.5" height="5.5"/>
  <g>
    <path class="st2" d="M72.8,28.9v-5.5h-5.5v-5.5h-5.5v-5.5H28.9v5.5h-5.5v5.5h-5.5v5.5h-5.5v33h5.5v11h11v5.5h33v-5.5h5.5v-5.5h5.5v-5.5h5.5V28.9h-5.5ZM72.8,39.9v16.5h-5.5v5.5h-5.5v5.5h-5.5v5.5h-22v-5.5h-5.5v-5.5h-5.5v-5.5h-5.5v-22h5.5v-5.5h5.5v-5.5h5.5v-5.5h22v5.5h5.5v5.5h5.5v5.5h5.5v5.5Z"/>
    <path class="st2" d="M67.3,45.4v-11h-5.5v-5.5h-27.5v5.5h-5.5v27.5h5.5v5.5h22v-5.5h5.5v-5.5h5.5v-11ZM50.9,56.4v5.5h-11v-11h-5.5v-11h5.5v-5.5h11v5.5h5.5v16.5h-5.5Z"/>
  </g>
  <rect class="st4" x="72.8" y="56.4" width="5.5" height="5.5"/>
  <rect class="st7" x="72.8" y="50.9" width="5.5" height="5.5"/>
  <rect class="st4" x="72.8" y="45.4" width="5.5" height="5.5"/>
  <rect class="st7" x="72.8" y="39.9" width="5.5" height="5.5"/>
  <rect class="st4" x="72.8" y="34.4" width="5.5" height="5.5"/>
  <rect class="st4" x="72.8" y="28.9" width="5.5" height="5.5"/>
  <rect class="st7" x="67.3" y="61.8" width="5.5" height="5.5"/>
  <rect class="st4" x="67.3" y="56.4" width="5.5" height="5.5"/>
  <rect class="st7" x="61.8" y="67.3" width="5.5" height="5.5"/>
  <rect class="st4" x="61.8" y="61.8" width="5.5" height="5.5"/>
  <rect class="st0" x="61.8" y="45.4" width="5.5" height="5.5"/>
  <rect class="st0" x="61.8" y="39.9" width="5.5" height="5.5"/>
  <rect class="st0" x="61.8" y="17.9" width="5.5" height="5.5"/>
  <rect class="st0" x="56.3" y="72.8" width="5.5" height="5.5"/>
  <rect class="st4" x="56.3" y="67.3" width="5.5" height="5.5"/>
  <rect class="st7" x="50.9" y="50.9" width="5.5" height="5.5"/>
  <rect class="st1" x="50.9" y="45.4" width="5.5" height="5.5"/>
  <rect class="st1" x="50.9" y="39.9" width="5.5" height="5.5"/>
  <rect class="st7" x="50.9" y="23.4" width="5.5" height="5.5"/>
  <rect class="st7" x="45.4" y="56.4" width="5.5" height="5.5"/>
  <rect class="st1" x="45.4" y="50.9" width="5.5" height="5.5"/>
  <rect class="st1" x="45.4" y="45.4" width="5.5" height="5.5"/>
  <rect class="st1" x="45.4" y="39.9" width="5.5" height="5.5"/>
  <rect class="st1" x="45.4" y="34.4" width="5.5" height="5.5"/>
  <rect class="st7" x="45.4" y="23.4" width="5.5" height="5.5"/>
  <rect class="st7" x="39.9" y="56.4" width="5.5" height="5.5"/>
  <rect class="st1" x="39.9" y="50.9" width="5.5" height="5.5"/>
  <rect class="st1" x="39.9" y="45.4" width="5.5" height="5.5"/>
  <rect class="st1" x="39.9" y="39.9" width="5.5" height="5.5"/>
  <rect class="st1" x="39.9" y="34.4" width="5.5" height="5.5"/>
  <rect class="st7" x="39.9" y="23.4" width="5.5" height="5.5"/>
  <rect class="st1" x="34.4" y="45.4" width="5.5" height="5.5"/>
  <rect class="st1" x="34.4" y="39.9" width="5.5" height="5.5"/>
  <rect class="st7" x="34.4" y="23.4" width="5.5" height="5.5"/>
  <rect class="st7" x="28.9" y="28.9" width="5.5" height="5.5"/>
  <rect class="st4" x="23.4" y="67.3" width="5.5" height="5.5"/>
  <rect class="st7" x="23.4" y="50.9" width="5.5" height="5.5"/>
  <rect class="st7" x="23.4" y="45.4" width="5.5" height="5.5"/>
  <rect class="st7" x="23.4" y="39.9" width="5.5" height="5.5"/>
  <rect class="st7" x="23.4" y="34.4" width="5.5" height="5.5"/>
  <g>
    <rect class="st1" x="28.9" y="12.4" width="5.5" height="5.5"/>
    <rect class="st1" x="23.4" y="17.9" width="5.5" height="5.5"/>
    <rect class="st1" x="17.9" y="23.4" width="5.5" height="5.5"/>
    <polygon class="st1" points="12.4 34.4 12.4 39.9 12.4 45.4 12.4 50.9 12.4 56.4 17.9 56.4 17.9 50.9 17.9 45.4 17.9 39.9 17.9 34.4 17.9 28.9 12.4 28.9 12.4 34.4"/>
  </g>
  <rect class="st7" x="67.3" y="50.9" width="5.5" height="5.5"/>
  <rect class="st7" x="67.3" y="45.4" width="5.5" height="5.5"/>
  <rect class="st7" x="67.3" y="39.9" width="5.5" height="5.5"/>
  <rect class="st7" x="67.3" y="34.4" width="5.5" height="5.5"/>
  <rect class="st7" x="61.8" y="56.4" width="5.5" height="5.5"/>
  <rect class="st4" x="61.8" y="45.4" width="5.5" height="5.5"/>
  <rect class="st4" x="61.8" y="39.9" width="5.5" height="5.5"/>
  <rect class="st7" x="61.8" y="28.9" width="5.5" height="5.5"/>
  <rect class="st7" x="56.3" y="61.8" width="5.5" height="5.5"/>
  <rect class="st4" x="56.3" y="56.4" width="5.5" height="5.5"/>
  <rect class="st4" x="56.3" y="34.4" width="5.5" height="5.5"/>
  <rect class="st7" x="56.3" y="23.4" width="5.5" height="5.5"/>
  <rect class="st7" x="50.9" y="67.3" width="5.5" height="5.5"/>
  <rect class="st7" x="50.9" y="45.4" width="5.5" height="5.5"/>
  <rect class="st7" x="50.9" y="39.9" width="5.5" height="5.5"/>
  <rect class="st7" x="50.9" y="17.9" width="5.5" height="5.5"/>
  <rect class="st7" x="45.4" y="67.3" width="5.5" height="5.5"/>
  <rect class="st7" x="45.4" y="50.9" width="5.5" height="5.5"/>
  <rect class="st4" x="45.4" y="45.4" width="5.5" height="5.5"/>
  <rect class="st4" x="45.4" y="39.9" width="5.5" height="5.5"/>
  <rect class="st7" x="45.4" y="34.4" width="5.5" height="5.5"/>
  <rect class="st7" x="45.4" y="17.9" width="5.5" height="5.5"/>
  <rect class="st7" x="39.9" y="67.3" width="5.5" height="5.5"/>
  <rect class="st7" x="39.9" y="50.9" width="5.5" height="5.5"/>
  <rect class="st4" x="39.9" y="45.4" width="5.5" height="5.5"/>
  <rect class="st7" x="39.9" y="34.4" width="5.5" height="5.5"/>
  <rect class="st7" x="39.9" y="17.9" width="5.5" height="5.5"/>
  <rect class="st7" x="34.4" y="67.3" width="5.5" height="5.5"/>
  <rect class="st4" x="34.4" y="61.8" width="5.5" height="5.5"/>
  <rect class="st7" x="34.4" y="45.4" width="5.5" height="5.5"/>
  <rect class="st7" x="34.4" y="39.9" width="5.5" height="5.5"/>
  <rect class="st7" x="34.4" y="17.9" width="5.5" height="5.5"/>
  <rect class="st7" x="28.9" y="61.8" width="5.5" height="5.5"/>
  <rect class="st7" x="28.9" y="23.4" width="5.5" height="5.5"/>
  <rect class="st7" x="23.4" y="56.4" width="5.5" height="5.5"/>
  <g>
    <rect class="st5" x="72.8" y="50.9" width="5.5" height="5.5"/>
    <rect class="st5" x="72.8" y="39.9" width="5.5" height="5.5"/>
    <rect class="st5" x="67.3" y="61.8" width="5.5" height="5.5"/>
    <rect class="st5" x="61.8" y="67.3" width="5.5" height="5.5"/>
    <rect class="st5" x="50.9" y="50.9" width="5.5" height="5.5"/>
    <polygon class="st5" points="45.4 23.4 39.9 23.4 34.4 23.4 34.4 28.9 39.9 28.9 45.4 28.9 50.9 28.9 56.3 28.9 56.3 23.4 50.9 23.4 45.4 23.4"/>
    <polygon class="st5" points="39.9 56.4 39.9 61.8 45.4 61.8 50.9 61.8 50.9 56.4 45.4 56.4 39.9 56.4"/>
    <rect class="st5" x="28.9" y="28.9" width="5.5" height="5.5"/>
    <polygon class="st5" points="23.4 39.9 23.4 45.4 23.4 50.9 23.4 56.4 28.9 56.4 28.9 50.9 28.9 45.4 28.9 39.9 28.9 34.4 23.4 34.4 23.4 39.9"/>
  </g>
  <rect class="st7" x="23.4" y="28.9" width="5.5" height="5.5"/>
  <rect class="st7" x="17.9" y="50.9" width="5.5" height="5.5"/>
  <rect class="st7" x="17.9" y="45.4" width="5.5" height="5.5"/>
  <rect class="st7" x="17.9" y="39.9" width="5.5" height="5.5"/>
  <rect class="st7" x="17.9" y="34.4" width="5.5" height="5.5"/>
  <g>
    <polygon class="st6" points="67.3 39.9 67.3 45.4 67.3 50.9 67.3 56.4 72.8 56.4 72.8 50.9 72.8 45.4 72.8 39.9 72.8 34.4 67.3 34.4 67.3 39.9"/>
    <rect class="st6" x="61.8" y="56.4" width="5.5" height="5.5"/>
    <rect class="st6" x="61.8" y="28.9" width="5.5" height="5.5"/>
    <rect class="st6" x="56.3" y="61.8" width="5.5" height="5.5"/>
    <rect class="st6" x="56.3" y="23.4" width="5.5" height="5.5"/>
    <polygon class="st6" points="45.4 67.3 39.9 67.3 34.4 67.3 34.4 72.8 39.9 72.8 45.4 72.8 50.9 72.8 56.3 72.8 56.3 67.3 50.9 67.3 45.4 67.3"/>
    <polygon class="st6" points="45.4 23.4 50.9 23.4 56.3 23.4 56.3 17.9 50.9 17.9 45.4 17.9 39.9 17.9 34.4 17.9 34.4 23.4 39.9 23.4 45.4 23.4"/>
    <rect class="st6" x="28.9" y="61.8" width="5.5" height="5.5"/>
    <rect class="st6" x="28.9" y="23.4" width="5.5" height="5.5"/>
    <rect class="st6" x="23.4" y="56.4" width="5.5" height="5.5"/>
    <rect class="st6" x="23.4" y="28.9" width="5.5" height="5.5"/>
    <polygon class="st6" points="23.4 45.4 23.4 39.9 23.4 34.4 17.9 34.4 17.9 39.9 17.9 45.4 17.9 50.9 17.9 56.4 23.4 56.4 23.4 50.9 23.4 45.4"/>
    <polygon class="st6" points="78.3 28.9 78.3 34.4 78.3 39.9 78.3 45.4 78.3 50.9 78.3 56.4 78.3 61.8 83.8 61.8 83.8 56.4 83.8 50.9 83.8 45.4 83.8 39.9 83.8 34.4 83.8 28.9 78.3 28.9"/>
    <rect class="st6" x="72.8" y="61.8" width="5.5" height="5.5"/>
    <rect class="st6" x="72.8" y="23.4" width="5.5" height="5.5"/>
    <rect class="st6" x="67.3" y="67.3" width="5.5" height="5.5"/>
    <rect class="st6" x="67.3" y="17.9" width="5.5" height="5.5"/>
    <rect class="st6" x="61.8" y="72.8" width="5.5" height="5.5"/>
    <rect class="st6" x="61.8" y="12.4" width="5.5" height="5.5"/>
    <polygon class="st6" points="50.9 78.3 45.4 78.3 39.9 78.3 34.4 78.3 28.9 78.3 28.9 83.8 34.4 83.8 39.9 83.8 45.4 83.8 50.9 83.8 56.3 83.8 61.8 83.8 61.8 78.3 56.3 78.3 50.9 78.3"/>
    <polygon class="st6" points="39.9 12.4 45.4 12.4 50.9 12.4 56.3 12.4 61.8 12.4 61.8 6.9 56.3 6.9 50.9 6.9 45.4 6.9 39.9 6.9 34.4 6.9 28.9 6.9 28.9 12.4 34.4 12.4 39.9 12.4"/>
    <rect class="st6" x="23.4" y="72.8" width="5.5" height="5.5"/>
    <rect class="st6" x="23.4" y="12.4" width="5.5" height="5.5"/>
    <rect class="st6" x="17.9" y="67.3" width="5.5" height="5.5"/>
    <rect class="st6" x="17.9" y="17.9" width="5.5" height="5.5"/>
    <rect class="st6" x="12.4" y="61.8" width="5.5" height="5.5"/>
    <rect class="st6" x="12.4" y="23.4" width="5.5" height="5.5"/>
    <polygon class="st6" points="12.4 50.9 12.4 45.4 12.4 39.9 12.4 34.4 12.4 28.9 6.9 28.9 6.9 34.4 6.9 39.9 6.9 45.4 6.9 50.9 6.9 56.4 6.9 61.8 12.4 61.8 12.4 56.4 12.4 50.9"/>
  </g>
</svg>