<?xml version="1.0" encoding="UTF-8"?>
<svg id="Layer_1" xmlns="http://www.w3.org/2000/svg" version="1.1" viewBox="0 0 89.7 89.7">
  <!-- Generator: Adobe Illustrator 29.8.2, SVG Export Plug-In . SVG Version: 2.1.1 Build 3)  -->
  <defs>
    <style>
      .st0 {
        fill: #9a9ae8;
      }

      .st1 {
        fill: #8e8ec9;
      }

      .st2 {
        fill: #493b62;
      }

      .st3 {
        fill: #c0c0f4;
      }

      .st4 {
        fill: #eae8fc;
      }

      .st5 {
        fill: #fff;
      }

      .st6 {
        fill: #ddd7fc;
      }
    </style>
  </defs>
  <g>
    <polygon class="st0" points="75.6 28.9 75.6 23.4 70.1 23.4 70.1 28.9 64.6 28.9 59.1 28.9 59.1 23.4 53.6 23.4 53.6 28.9 48.1 28.9 42.6 28.9 37.1 28.9 37.1 23.4 31.6 23.4 31.6 28.9 26.1 28.9 26.1 28.9 20.6 28.9 15.1 28.9 9.6 28.9 9.6 34.4 15.1 34.4 20.6 34.4 26.1 34.4 26.1 34.4 31.6 34.4 37.1 34.4 42.6 34.4 48.1 34.4 53.6 34.4 53.6 34.4 59.1 34.4 64.6 34.4 70.1 34.4 75.6 34.4 81.1 34.4 81.1 28.9 75.6 28.9"/>
    <rect class="st0" x="59.1" y="17.9" width="5.5" height="5.5"/>
    <polygon class="st0" points="42.6 39.9 42.6 45.4 42.6 50.9 42.6 56.4 42.6 61.8 42.6 67.3 42.6 72.8 48.1 72.8 48.1 67.3 48.1 61.8 48.1 56.4 48.1 50.9 48.1 45.4 48.1 39.9 48.1 34.4 42.6 34.4 42.6 39.9"/>
    <rect class="st0" x="42.6" y="17.9" width="5.5" height="5.5"/>
    <rect class="st0" x="26.1" y="17.9" width="5.5" height="5.5"/>
    <rect class="st0" x="15.1" y="23.4" width="5.5" height="5.5"/>
  </g>
  <rect class="st3" x="64.6" y="39.9" width="5.5" height="5.5"/>
  <rect class="st3" x="59.1" y="50.9" width="5.5" height="5.5"/>
  <rect class="st5" x="59.1" y="34.4" width="5.5" height="5.5"/>
  <rect class="st3" x="53.6" y="50.9" width="5.5" height="5.5"/>
  <rect class="st5" x="53.6" y="17.9" width="5.5" height="5.5"/>
  <g>
    <polygon class="st4" points="75.6 34.4 70.1 34.4 64.6 34.4 59.1 34.4 53.6 34.4 48.1 34.4 48.1 39.9 48.1 45.4 48.1 50.9 48.1 56.4 48.1 61.8 48.1 67.3 53.6 67.3 53.6 61.8 59.1 61.8 59.1 56.4 64.6 56.4 64.6 50.9 70.1 50.9 70.1 45.4 75.6 45.4 75.6 39.9 81.1 39.9 81.1 34.4 75.6 34.4"/>
    <polygon class="st4" points="64.6 28.9 70.1 28.9 70.1 23.4 70.1 17.9 64.6 17.9 64.6 23.4 59.1 23.4 59.1 28.9 64.6 28.9"/>
    <polygon class="st4" points="53.6 28.9 53.6 23.4 59.1 23.4 59.1 17.9 53.6 17.9 48.1 17.9 48.1 23.4 42.6 23.4 42.6 17.9 37.1 17.9 31.6 17.9 31.6 23.4 37.1 23.4 37.1 28.9 42.6 28.9 48.1 28.9 53.6 28.9"/>
    <polygon class="st4" points="31.6 34.4 26.1 34.4 20.6 34.4 15.1 34.4 9.6 34.4 9.6 39.9 15.1 39.9 15.1 45.4 20.6 45.4 20.6 50.9 26.1 50.9 26.1 56.4 31.6 56.4 31.6 61.8 37.1 61.8 37.1 67.3 42.6 67.3 42.6 61.8 42.6 56.4 42.6 50.9 42.6 45.4 42.6 39.9 42.6 34.4 37.1 34.4 31.6 34.4"/>
    <polygon class="st4" points="26.1 17.9 20.6 17.9 20.6 23.4 20.6 28.9 26.1 28.9 31.6 28.9 31.6 23.4 26.1 23.4 26.1 17.9"/>
  </g>
  <rect class="st5" x="37.1" y="23.4" width="5.5" height="5.5"/>
  <rect class="st3" x="37.1" y="17.9" width="5.5" height="5.5"/>
  <rect class="st5" x="31.6" y="56.4" width="5.5" height="5.5"/>
  <rect class="st3" x="31.6" y="45.4" width="5.5" height="5.5"/>
  <rect class="st5" x="31.6" y="39.9" width="5.5" height="5.5"/>
  <rect class="st5" x="26.1" y="50.9" width="5.5" height="5.5"/>
  <rect class="st5" x="20.6" y="45.4" width="5.5" height="5.5"/>
  <g>
    <rect class="st6" x="75.6" y="34.4" width="5.5" height="5.5"/>
    <rect class="st6" x="70.1" y="39.9" width="5.5" height="5.5"/>
    <rect class="st6" x="64.6" y="34.4" width="5.5" height="5.5"/>
    <rect class="st6" x="64.6" y="23.4" width="5.5" height="5.5"/>
    <rect class="st6" x="59.1" y="45.4" width="5.5" height="5.5"/>
    <polygon class="st6" points="53.6 39.9 53.6 34.4 48.1 34.4 48.1 39.9 48.1 45.4 48.1 50.9 48.1 56.4 53.6 56.4 53.6 50.9 53.6 45.4 59.1 45.4 59.1 39.9 53.6 39.9"/>
    <rect class="st6" x="48.1" y="61.8" width="5.5" height="5.5"/>
    <rect class="st6" x="48.1" y="23.4" width="5.5" height="5.5"/>
    <rect class="st6" x="37.1" y="56.4" width="5.5" height="5.5"/>
    <rect class="st6" x="31.6" y="17.9" width="5.5" height="5.5"/>
    <rect class="st6" x="26.1" y="23.4" width="5.5" height="5.5"/>
    <rect class="st6" x="20.6" y="39.9" width="5.5" height="5.5"/>
  </g>
  <g>
    <polygon class="st1" points="75.6 28.9 75.6 23.4 70.1 23.4 70.1 28.9 64.6 28.9 59.1 28.9 53.6 28.9 53.6 34.4 59.1 34.4 64.6 34.4 70.1 34.4 75.6 34.4 81.1 34.4 81.1 28.9 75.6 28.9"/>
    <rect class="st1" x="64.6" y="45.4" width="5.5" height="5.5"/>
    <rect class="st1" x="53.6" y="56.4" width="5.5" height="5.5"/>
    <rect class="st1" x="42.6" y="50.9" width="5.5" height="5.5"/>
    <rect class="st1" x="42.6" y="34.4" width="5.5" height="5.5"/>
    <rect class="st1" x="20.6" y="28.9" width="5.5" height="5.5"/>
  </g>
  <rect class="st5" x="20.6" y="17.9" width="5.5" height="5.5"/>
  <rect class="st5" x="15.1" y="39.9" width="5.5" height="5.5"/>
  <rect class="st5" x="9.6" y="34.4" width="5.5" height="5.5"/>
  <g>
    <polygon class="st2" points="81.1 28.9 81.1 34.4 81.1 39.9 86.6 39.9 86.6 34.4 86.6 28.9 81.1 28.9"/>
    <rect class="st2" x="75.6" y="39.9" width="5.5" height="5.5"/>
    <rect class="st2" x="70.1" y="45.4" width="5.5" height="5.5"/>
    <rect class="st2" x="64.6" y="50.9" width="5.5" height="5.5"/>
    <rect class="st2" x="59.1" y="56.4" width="5.5" height="5.5"/>
    <rect class="st2" x="53.6" y="61.8" width="5.5" height="5.5"/>
    <rect class="st2" x="48.1" y="67.3" width="5.5" height="5.5"/>
    <rect class="st2" x="42.6" y="72.8" width="5.5" height="5.5"/>
    <rect class="st2" x="37.1" y="67.3" width="5.5" height="5.5"/>
    <rect class="st2" x="31.6" y="61.8" width="5.5" height="5.5"/>
    <rect class="st2" x="26.1" y="56.4" width="5.5" height="5.5"/>
    <rect class="st2" x="20.6" y="50.9" width="5.5" height="5.5"/>
    <rect class="st2" x="15.1" y="45.4" width="5.5" height="5.5"/>
    <rect class="st2" x="9.6" y="39.9" width="5.5" height="5.5"/>
    <polygon class="st2" points="9.6 28.9 4.2 28.9 4.2 34.4 4.2 39.9 9.6 39.9 9.6 34.4 9.6 28.9"/>
    <rect class="st2" x="9.6" y="23.4" width="5.5" height="5.5"/>
    <rect class="st2" x="75.6" y="23.4" width="5.5" height="5.5"/>
    <rect class="st2" x="70.1" y="17.9" width="5.5" height="5.5"/>
    <rect class="st2" x="15.1" y="17.9" width="5.5" height="5.5"/>
    <polygon class="st2" points="31.6 17.9 37.1 17.9 42.6 17.9 48.1 17.9 53.6 17.9 59.1 17.9 64.6 17.9 70.1 17.9 70.1 12.4 64.6 12.4 59.1 12.4 53.6 12.4 48.1 12.4 42.6 12.4 37.1 12.4 31.6 12.4 26.1 12.4 20.6 12.4 20.6 17.9 26.1 17.9 31.6 17.9"/>
  </g>
</svg>